<?xml version="1.0" encoding="UTF-8" standalone="no"?>
<!-- Generator: Adobe Illustrator 15.0.0, SVG Export Plug-In . SVG Version: 6.00 Build 0)  -->

<svg
   xmlns:dc="http://purl.org/dc/elements/1.1/"
   xmlns:cc="http://creativecommons.org/ns#"
   xmlns:rdf="http://www.w3.org/1999/02/22-rdf-syntax-ns#"
   xmlns:svg="http://www.w3.org/2000/svg"
   xmlns="http://www.w3.org/2000/svg"
   xmlns:sodipodi="http://sodipodi.sourceforge.net/DTD/sodipodi-0.dtd"
   xmlns:inkscape="http://www.inkscape.org/namespaces/inkscape"
   id="Layer_3"
   enable-background="new 0 0 200 200"
   xml:space="preserve"
   viewBox="0 0 200 200"
   version="1.1"
   y="0px"
   x="0px"
   inkscape:version="0.91 r13725"
   sodipodi:docname="thumbs_down.svg"><defs
     id="defs9" /><sodipodi:namedview
     pagecolor="#ffffff"
     bordercolor="#666666"
     borderopacity="1"
     objecttolerance="10"
     gridtolerance="10"
     guidetolerance="10"
     inkscape:pageopacity="0"
     inkscape:pageshadow="2"
     inkscape:window-width="640"
     inkscape:window-height="480"
     id="namedview7"
     showgrid="false"
     inkscape:zoom="1.18"
     inkscape:cx="100"
     inkscape:cy="100"
     inkscape:window-x="0"
     inkscape:window-y="0"
     inkscape:window-maximized="0"
     inkscape:current-layer="Layer_3" /><path
     stroke-miterlimit="10"
     d="m 83.640198,194.97271 c 0,0 6.518,0.448 8.766,-6.069 2.248,-6.517 2.02,-16.407 2.02,-16.407 0,0 7.190992,-14.834 15.057992,-20.678 7.867,-5.844 20.677,-12.585 20.677,-12.585 0,0 2.696,-2.248 4.046,-5.395 1.349,-3.146 7.416,-20.902 7.416,-20.902 0,0 4.496,-11.014 11.463,-18.43 6.968,-7.417 10.339,-8.991 14.16,-10.114 3.82,-1.123 5.169,-2.248 5.169,-2.248 l -7.192,-76.8659998 c 0,0 -15.732,7.8659998 -21.576,6.7429998 -5.844,-1.123 -15.059,-1.123 -22.026,-4.7199998 -6.967,-3.597 -43.376992,-4.943 -62.480992,2.697 -19.104,7.6399998 -23.6,3.3709998 -27.87,13.9349998 -4.27,10.564 6.745,11.014 7.418,14.834 0.673,3.82 -11.238,3.371 -12.812,11.912 -0.529,2.873 3.438,9.617 10.113,14.384 3.147,2.248 -13.26,-0.674 -11.687,14.609 0.734,7.144 2.698,8.765 9.44,10.563 6.741,1.798 -11.014,4.495 -10.114,15.284 0.611,7.336 10.548,14.668 26.071,15.732 16.406,1.123 24.947,0.898 24.947,0.898 l 17.081,1.124 c 0,0 -11.463,18.654 -15.732,25.397 -4.27,6.742 -9.663,21.801 -9.214,24.947 0.44,3.158 1.12,23.162 16.85,21.364 z"
     id="path3"
     inkscape:connector-curvature="0"
     style="fill:#ffffff;stroke:#000000;stroke-width:6;stroke-miterlimit:10" /><metadata
     id="metadata5"><rdf:RDF><cc:Work><dc:format>image/svg+xml</dc:format><dc:type
           rdf:resource="http://purl.org/dc/dcmitype/StillImage" /><cc:license
           rdf:resource="http://creativecommons.org/licenses/publicdomain/" /><dc:publisher><cc:Agent
             rdf:about="http://openclipart.org/"><dc:title>Openclipart</dc:title></cc:Agent></dc:publisher></cc:Work><cc:License
         rdf:about="http://creativecommons.org/licenses/publicdomain/"><cc:permits
           rdf:resource="http://creativecommons.org/ns#Reproduction" /><cc:permits
           rdf:resource="http://creativecommons.org/ns#Distribution" /><cc:permits
           rdf:resource="http://creativecommons.org/ns#DerivativeWorks" /></cc:License></rdf:RDF></metadata></svg>